<?xml version="1.0" encoding="UTF-8"?>
<svg width="19" height="24" viewBox="0 0 19 24" fill="none" xmlns="http://www.w3.org/2000/svg">
<g clip-path="url(#clip0)">
<path d="M2.63037 12.0535C2.06224 12.0535 1.60071 11.5739 1.60071 10.9835V8.4592C1.60071 7.87535 2.05346 7.39968 2.61281 7.38926C2.80972 5.50741 3.53211 3.90836 4.70726 2.75762C5.90749 1.58343 7.49275 0.963095 9.29372 0.961792C11.0947 0.963095 12.6812 1.58343 13.8802 2.75762C15.0553 3.90706 15.7777 5.50741 15.9746 7.38926C16.534 7.39838 16.9867 7.87535 16.9867 8.4592V10.9835C16.9867 11.5739 16.5252 12.0535 15.9571 12.0535H2.63037ZM15.8856 10.9092V8.53348H14.9437L14.9174 7.99004C14.7418 4.41662 12.5345 2.10732 9.29497 2.10602C6.05423 2.10732 3.84691 4.41792 3.67132 7.99004L3.64499 8.53348H2.70311V10.9079H15.8856V10.9092Z" fill="#005A64"/>
<path d="M9.25858 10.1222C7.41371 10.1222 5.91122 8.56227 5.91122 6.64394C5.91122 4.7269 7.41245 3.16565 9.25858 3.16565C11.1034 3.16565 12.6059 4.7256 12.6059 6.64394C12.6047 8.56227 11.1034 10.1222 9.25858 10.1222ZM9.25858 4.31118C8.02072 4.31118 7.01363 5.35766 7.01363 6.64394C7.01363 7.93021 8.02072 8.9767 9.25858 8.9767C10.4964 8.9767 11.5035 7.93021 11.5035 6.64394C11.5035 5.35766 10.4964 4.31118 9.25858 4.31118Z" fill="#005A64"/>
<path d="M9.25867 8.73011C8.1525 8.73011 7.25201 7.7944 7.25201 6.64496C7.25201 5.49552 8.1525 4.55981 9.25867 4.55981C10.3648 4.55981 11.2653 5.49552 11.2653 6.64496C11.2653 7.7944 10.3648 8.73011 9.25867 8.73011ZM9.25867 5.70274C8.75951 5.70274 8.35316 6.12498 8.35316 6.64366C8.35316 7.16234 8.75951 7.58458 9.25867 7.58458C9.75782 7.58458 10.1642 7.16234 10.1642 6.64366C10.1642 6.12498 9.75782 5.70274 9.25867 5.70274Z" fill="#005A64"/>
<path d="M9.29497 18.6634C5.54377 18.6634 2.4924 15.3362 2.4924 11.2468V11.136H3.83435V11.2468C3.83435 14.5674 6.28373 17.2689 9.29497 17.2689C12.3062 17.2689 14.7556 14.5674 14.7556 11.2468V11.136H16.0975V11.2468C16.0975 15.3362 13.0462 18.6634 9.29497 18.6634Z" fill="#005A64"/>
<path d="M16.8877 23.3184V23.2077C16.8877 21.9892 16.3509 21.0078 15.2911 20.2898C13.9818 19.4023 11.9638 18.9527 9.29498 18.9527C6.62488 18.9527 4.60819 19.4023 3.29885 20.2898C2.23908 21.0078 1.7023 21.9892 1.7023 23.2077V23.3184H0.360352V23.2077C0.360352 21.5096 1.23074 17.5582 9.29498 17.5582C17.3592 17.5582 18.2296 21.5096 18.2296 23.2077V23.3184H16.8877Z" fill="#005A64"/>
</g>
<defs>
<clipPath id="clip0">
<rect x="0.360352" y="0.961792" width="17.8705" height="22.3567" fill="white"/>
</clipPath>
</defs>
</svg>
