<?xml version="1.0" encoding="UTF-8"?>
<svg width="17" height="23" viewBox="0 0 17 23" fill="none" xmlns="http://www.w3.org/2000/svg">
<g clip-path="url(#clip0)">
<path d="M1.192 22.156C0.797877 22.156 0.477234 21.8537 0.477234 21.4821V10.5094C0.477234 10.1378 0.797877 9.83545 1.192 9.83545H15.3992C15.7933 9.83545 16.1139 10.1378 16.1139 10.5094V21.4821C16.1139 21.8537 15.7933 22.156 15.3992 22.156H1.192ZM14.6844 20.8082V11.1833H1.90677V20.8082H14.6844Z" fill="#005A64"/>
<path d="M11.5073 10.1858V7.73709C11.5073 6.0668 10.0671 4.7089 8.29555 4.7089C6.52399 4.7089 5.08377 6.0668 5.08377 7.73709V10.1858H3.65424V7.73709C3.65424 5.32361 5.73575 3.36108 8.29555 3.36108C10.8554 3.36108 12.9369 5.32361 12.9369 7.73709V10.1858H11.5073Z" fill="#005A64"/>
<path d="M14.0987 10.1857V7.73695C14.0987 4.7201 11.4961 2.26631 8.29635 2.26631C5.0966 2.26631 2.49271 4.7201 2.49271 7.73695V10.1857H1.06317V7.73695C1.06317 3.97691 4.30701 0.917236 8.29502 0.917236C12.283 0.917236 15.5282 3.97691 15.5282 7.73695V10.1857H14.0987Z" fill="#005A64"/>
</g>
<defs>
<clipPath id="clip0">
<rect x="0.477234" y="0.917236" width="15.6367" height="21.2389" fill="white"/>
</clipPath>
</defs>
</svg>
