<svg width="317" height="30" viewBox="0 0 317 30" fill="none" xmlns="http://www.w3.org/2000/svg">
<path d="M189.09 25.8754L190.616 22.6576C192.761 24.5927 196.421 25.997 200.137 25.997C205.124 25.997 207.269 24.0619 207.269 21.5518C207.269 14.5079 189.798 18.9532 189.798 8.23811C189.798 3.79285 193.259 0 200.833 0C204.217 0 207.711 0.906745 210.1 2.55437L208.74 5.84961C206.23 4.24622 203.388 3.50534 200.833 3.50534C195.935 3.50534 193.834 5.56211 193.834 8.0833C193.834 15.1272 211.305 10.7151 211.305 21.3085C211.305 25.7206 207.767 29.5135 200.137 29.5135C195.725 29.4913 191.401 28.0096 189.09 25.8754Z" fill="white"/>
<path d="M236.196 25.5768V29.1596H215.264V0.320679H235.621V3.90343H219.388V12.7608H233.852V16.2661H219.388V25.5768H236.196Z" fill="white"/>
<path d="M265.632 0.320679V29.1596H262.249L244.943 7.65205V29.1596H240.818V0.320679H244.202L261.508 21.8282V0.320679H265.632Z" fill="white"/>
<path d="M269.602 25.8754L271.128 22.6576C273.273 24.5927 276.933 25.997 280.648 25.997C285.635 25.997 287.781 24.0619 287.781 21.5518C287.781 14.5079 270.309 18.9532 270.309 8.23811C270.309 3.79285 273.77 0 281.345 0C284.729 0 288.223 0.906745 290.612 2.55437L289.251 5.84961C286.741 4.24622 283.899 3.50534 281.345 3.50534C276.446 3.50534 274.345 5.56211 274.345 8.0833C274.345 15.1272 291.817 10.7151 291.817 21.3085C291.817 25.7206 288.278 29.5135 280.648 29.5135C276.236 29.4913 271.913 28.0096 269.602 25.8754Z" fill="white"/>
<path d="M316.709 25.5768V29.1596H295.776V0.320679H316.134V3.90343H299.901V12.7608H314.365V16.2661H299.901V25.5768H316.709Z" fill="white"/>
<path d="M28.8461 0V29.9964H20.2699V18.2997H8.57628V30H0V0H8.57628V11.2695H20.2699V0H28.8461Z" fill="white"/>
<path d="M61.1542 23.4432L58.3483 30H33.4619V0H57.7759V6.55684H42.1452V11.6148H55.9165V17.958H42.1452V23.4432H61.1542Z" fill="white"/>
<path d="M80.8406 24.1709H67.8323L65.4155 30H56.5391L70.1191 0H78.6874L92.3083 30H83.2537L80.8406 24.1709ZM78.2902 17.9145L74.3327 8.31281L70.3753 17.9145H78.2902Z" fill="white"/>
<path d="M92.3076 0H100.896V23.273H115.385V30H92.3076V0Z" fill="white"/>
<path d="M120.264 6.73063H110.769V0H138.461V6.72701H129.01V30H120.264V6.73063Z" fill="white"/>
<path d="M178.176 11.2744H167.874V0H159.541V11.2744H148.176V18.302H159.541V30H167.874V18.302H178.176V11.2744Z" fill="#E7303C"/>
<path fill-rule="evenodd" clip-rule="evenodd" d="M159.618 11.2695H148.576V0H140V30H148.576V18.2997H159.618V11.2695Z" fill="white"/>
</svg>
