<svg width="171" height="82" viewBox="0 0 171 82" fill="none" xmlns="http://www.w3.org/2000/svg">
<path d="M165.571 0C168.036 0 170.059 1.97648 170.059 4.4671C170.059 6.94086 168.032 8.90891 165.571 8.90891C163.072 8.90891 161.058 6.94086 161.058 4.4671C161.058 1.97648 163.072 0 165.571 0ZM165.571 8.24306C167.657 8.24306 169.351 6.54894 169.351 4.46288C169.351 2.37683 167.657 0.661633 165.571 0.661633C163.485 0.661633 161.77 2.38105 161.77 4.46288C161.766 6.54894 163.485 8.24306 165.571 8.24306ZM166.92 3.04269C166.646 2.67605 166.174 2.52012 165.761 2.52012C164.72 2.52012 163.995 3.32504 163.995 4.3786C163.995 5.5038 164.669 6.26237 165.723 6.26237C166.279 6.26237 166.692 6.03901 166.966 5.66816L167.687 6.17808C167.223 6.747 166.574 7.07993 165.71 7.07993C164.121 7.07993 162.988 5.98844 162.988 4.3786C162.988 2.74347 164.197 1.71519 165.761 1.71519C166.422 1.71519 167.194 1.96384 167.607 2.49483L166.92 3.04269Z" fill="white"/>
<path d="M20.4219 78.3729L21.9443 75.1631C24.0874 77.1026 27.7529 78.4989 31.4669 78.4989C36.4513 78.4989 38.5943 76.5595 38.5943 74.048C38.5943 66.9981 21.1201 71.4491 21.1201 60.7338C21.1201 56.2828 24.582 52.4912 32.1651 52.4912C35.5397 52.4912 39.0501 53.393 41.4356 55.0416L40.078 58.3386C37.5664 56.7289 34.7252 55.9919 32.1651 55.9919C27.2584 55.9919 25.1638 58.0477 25.1638 60.5689C25.1638 67.6188 42.638 63.2066 42.638 73.7958C42.638 78.208 39.0986 81.9996 31.4766 81.9996C27.0547 81.9899 22.7298 80.5063 20.4219 78.3729Z" fill="white"/>
<path d="M67.5396 78.0833V81.6713H46.6035V52.8223H66.9578V56.4102H50.7248V65.2637H65.1929V68.7644H50.7248V78.0833H67.5396Z" fill="white"/>
<path d="M96.9723 52.8223V81.6713H93.5976L76.2883 60.1533V81.6616H72.167V52.8223H75.5416L92.851 74.3305V52.8223H96.9723Z" fill="white"/>
<path d="M100.947 78.3729L102.47 75.1631C104.613 77.1026 108.278 78.4989 111.992 78.4989C116.977 78.4989 119.12 76.5595 119.12 74.048C119.12 66.9981 101.645 71.4491 101.645 60.7338C101.645 56.2828 105.107 52.4912 112.69 52.4912C116.075 52.4912 119.575 53.393 121.961 55.0416L120.603 58.3386C118.092 56.7289 115.251 55.9919 112.69 55.9919C107.784 55.9919 105.689 58.0477 105.689 60.5689C105.689 67.6188 123.163 63.2066 123.163 73.7958C123.163 78.208 119.624 81.9996 112.002 81.9996C107.58 81.9899 103.255 80.5063 100.947 78.3729Z" fill="white"/>
<path d="M148.056 78.0833V81.6713H127.12V52.8223H147.474V56.4102H131.241V65.2637H145.71V68.7644H131.241V78.0833H148.056Z" fill="white"/>
<path d="M27.4429 12V40.849H19.2876V29.6003H8.1553V40.849H0V12H8.1553V22.8414H19.2779V12H27.4429Z" fill="white"/>
<path d="M56.0689 34.5362L53.4604 40.8393H30.2939V12H52.9174V18.3031H38.3717V23.1614H51.1913V29.2609H38.3717V34.5362H56.0689Z" fill="white"/>
<path d="M75.2678 35.2441H63.0688L60.7996 40.849H52.4795L65.2118 12H73.2508L86.0219 40.849H77.5369L75.2678 35.2441ZM72.8823 29.2221L69.1683 19.9904L65.4543 29.2221H72.8823Z" fill="white"/>
<path d="M86.2852 12H94.4404V34.3713H108.201V40.8393H86.2852V12Z" fill="white"/>
<path d="M112.836 18.468H103.973V12H129.806V18.468H120.991V40.8393H112.836V18.468Z" fill="white"/>
<path d="M158.255 12V40.849H150.1V29.6003H138.978V40.849H130.822V12H138.978V22.8414H150.1V12H158.255Z" fill="white"/>
<path d="M168.352 22.8317H158.267V12H150.102V22.8317H138.979V29.5906H150.102V40.8393H158.267V29.5906H168.352V22.8317Z" fill="#E41B1D"/>
</svg>
