<svg width="160" height="130" viewBox="0 0 160 130" fill="none" xmlns="http://www.w3.org/2000/svg">
<path d="M146.042 79.0052C145.782 79.0052 145.545 78.8671 145.412 78.6407L108.511 14.7396C107.687 13.3203 106.157 12.4367 104.517 12.4367H100.644C99.0034 12.4367 97.4732 13.3203 96.6501 14.7396L74.835 52.5081C74.2936 53.4414 73.3269 53.9992 72.2496 53.9992C71.1614 53.9992 70.1946 53.4359 69.6533 52.4916L55.8041 28.1538C54.9865 26.718 53.4507 25.8233 51.799 25.8233H47.9707C46.33 25.8233 44.7998 26.7069 43.9767 28.1262L35.9335 42.0706C35.8782 42.1645 35.8782 42.286 35.9335 42.3798C35.9887 42.4737 36.0937 42.5345 36.2042 42.5345H45.0926C49.1198 42.5345 52.3901 45.8093 52.3901 49.8297V53.1598C52.3901 53.5574 52.0642 53.8833 51.6664 53.8833H29.2879C29.1774 53.8833 29.0724 53.944 29.0172 54.0379L25.6805 59.8144C25.6253 59.9083 25.6253 60.0298 25.6805 60.1237C25.7358 60.2176 25.8407 60.2783 25.9512 60.2783H55.1688C59.1959 60.2783 62.4663 63.5532 62.4663 67.5736V70.8981C62.4663 71.2958 62.1403 71.6216 61.7426 71.6216H19.0349C18.9244 71.6216 18.8195 71.6823 18.7642 71.7762L14.8089 78.6241C14.6818 78.8506 14.4388 78.9886 14.1791 78.9886H1.49556C1.23592 78.9886 0.998381 78.8506 0.8658 78.6241C0.738744 78.4032 0.738744 78.1216 0.8658 77.9007L35.6241 17.7328C37.1709 15.0544 40.049 13.3921 43.1426 13.3921H56.6714C59.787 13.3921 62.6762 15.071 64.2174 17.777L72.0452 31.5336C72.1005 31.633 72.2054 31.6882 72.3159 31.6882C72.4264 31.6882 72.5314 31.6275 72.5866 31.5336L88.2975 4.33518C89.8442 1.65676 92.7223 0 95.8159 0H109.356C112.449 0 115.327 1.66228 116.874 4.3407L159.366 77.9173C159.493 78.1382 159.493 78.4198 159.366 78.6407C159.239 78.8671 158.996 79.0052 158.737 79.0052H146.042Z" fill="#D7AB03"/>
<path d="M40.8171 91.6574H30.1443L21.9519 105.845L13.7595 91.6574H3.08677H0.396484V129.299H9.72687V103.155L18.3888 118.154H25.5151L34.177 103.155V129.299H43.5074V91.6574H40.8171Z" fill="#FAFAFA"/>
<path d="M56.1143 102.598C56.1143 100.72 57.7219 99.2181 62.1744 99.2181C65.1409 99.2181 68.3228 100.019 71.5656 101.604L75.8302 94.2202C72.129 92.083 67.0965 90.9619 62.2241 90.9619C51.0652 90.9619 45.5963 96.4292 45.5963 103.134C45.5963 117.078 66.9473 112.732 66.9473 118.685C66.9473 120.507 65.2293 121.744 60.832 121.744C56.8159 121.744 52.4905 120.452 49.2312 118.519L44.9775 125.886C48.5186 128.344 54.6228 130.001 60.7823 130.001C71.9412 130.001 77.4102 124.423 77.4102 117.879C77.4102 104.045 56.1143 108.33 56.1143 102.598Z" fill="#FAFAFA"/>
<path d="M157.14 91.6574H146.468L138.275 105.845L130.083 91.6574H119.41H116.72V129.299H126.05V103.155L134.712 118.154H141.838L150.5 103.155V129.299H159.831V91.6574H157.14Z" fill="#FAFAFA"/>
<path d="M97.7946 129.299H107.263V120.308H97.7946V129.299ZM107.263 112.361V120.308H116.798V112.361H107.263ZM90.602 112.361L97.7946 102.045V112.361H107.263V91.6574H105.037H97.7946H94.6568L78.7637 113.77C79.1669 114.968 79.3934 116.327 79.3934 117.878C79.3934 118.707 79.3161 119.519 79.1669 120.308H97.7946V112.361H90.602Z" fill="#FAFAFA"/>
</svg>
