<svg width="96" height="79" viewBox="0 0 96 79" fill="none" xmlns="http://www.w3.org/2000/svg">
<path d="M87.4192 47.4219C87.2633 47.4219 87.1207 47.339 87.0412 47.2031L64.8913 8.84727C64.3973 7.99536 63.4788 7.46499 62.494 7.46499H60.1696C59.1848 7.46499 58.2663 7.99536 57.7722 8.84727L44.678 31.5174C44.353 32.0776 43.7728 32.4124 43.1262 32.4124C42.4729 32.4124 41.8927 32.0743 41.5677 31.5074L33.2549 16.899C32.7642 16.0371 31.8424 15.5001 30.8509 15.5001H28.553C27.5682 15.5001 26.6498 16.0305 26.1557 16.8824L21.3278 25.2524C21.2947 25.3087 21.2947 25.3816 21.3278 25.438C21.361 25.4943 21.424 25.5308 21.4903 25.5308H26.8255C29.2427 25.5308 31.2057 27.4965 31.2057 29.9097V31.9085C31.2057 32.1472 31.0101 32.3428 30.7713 32.3428H17.3389C17.2726 32.3428 17.2096 32.3792 17.1764 32.4356L15.1736 35.9029C15.1405 35.9592 15.1405 36.0322 15.1736 36.0885C15.2068 36.1449 15.2698 36.1813 15.3361 36.1813H32.8736C35.2908 36.1813 37.2538 38.147 37.2538 40.5602V42.5558C37.2538 42.7944 37.0582 42.99 36.8194 42.99H11.1847C11.1184 42.99 11.0554 43.0265 11.0222 43.0828L8.64806 47.1932C8.57179 47.3291 8.4259 47.412 8.27005 47.412H0.656884C0.501039 47.412 0.358458 47.3291 0.278878 47.1932C0.202614 47.0606 0.202614 46.8915 0.278878 46.759L21.1421 10.6439C22.0706 9.03622 23.7981 8.03846 25.655 8.03846H33.7755C35.6456 8.03846 37.3798 9.04616 38.3049 10.6704L43.0035 18.9277C43.0366 18.9873 43.0996 19.0205 43.166 19.0205C43.2323 19.0205 43.2953 18.984 43.3284 18.9277L52.7587 2.60214C53.6871 0.994448 55.4147 0 57.2715 0H65.3987C67.2555 0 68.9831 0.997763 69.9115 2.60545L95.417 46.7689C95.4932 46.9015 95.4932 47.0705 95.417 47.2031C95.3407 47.339 95.1948 47.4219 95.039 47.4219H87.4192Z" fill="#D7AB03"/>
<path d="M24.262 55.0177H17.8558L12.9384 63.5335L8.02102 55.0177H1.61481H0V77.6116H5.60045V61.9192L10.7997 70.9222H15.0771L20.2764 61.9192V77.6116H25.8768V55.0177H24.262Z" fill="white"/>
<path d="M33.444 61.5832C33.444 60.4562 34.4089 59.5545 37.0815 59.5545C38.8621 59.5545 40.772 60.0352 42.7184 60.9865L45.2782 56.5546C43.0566 55.2718 40.0359 54.5989 37.1113 54.5989C30.4133 54.5989 27.1307 57.8806 27.1307 61.9048C27.1307 70.2747 39.9464 67.6659 39.9464 71.2393C39.9464 72.3332 38.9151 73.0757 36.2757 73.0757C33.8651 73.0757 31.2688 72.3001 29.3125 71.1399L26.7593 75.5618C28.8847 77.0369 32.5487 78.0314 36.2459 78.0314C42.9439 78.0314 46.2266 74.6834 46.2266 70.7553C46.2266 62.4517 33.444 65.024 33.444 61.5832Z" fill="white"/>
<path d="M94.0838 55.0177H87.6776L82.7602 63.5335L77.8428 55.0177H71.4366H69.8218V77.6116H75.4222V61.9192L80.6215 70.9222H84.8989L90.0981 61.9192V77.6116H95.6986V55.0177H94.0838Z" fill="white"/>
<path d="M58.4626 77.6116H64.146V72.215H58.4626V77.6116ZM64.146 67.445V72.215H69.8691V67.445H64.146ZM54.1454 67.445L58.4626 61.2529V67.445H64.146V55.0177H62.8097H58.4626H56.5792L47.0396 68.2903C47.2816 69.0096 47.4176 69.825 47.4176 70.7565C47.4176 71.2537 47.3711 71.741 47.2816 72.215H58.4626V67.445H54.1454Z" fill="white"/>
</svg>
